HIERARCHY
ROOT Hips
{
	OFFSET 0.000000 100.481300 0.000000
	CHANNELS 6 Xposition Yposition Zposition Xrotation Yrotation Zrotation
	JOINT Spine
	{
		OFFSET -0.279200 12.230698 -2.892100
		CHANNELS 3 Xrotation Yrotation Zrotation
		JOINT Spine1
		{
			OFFSET -0.325700 14.269203 -3.374200
			CHANNELS 3 Xrotation Yrotation Zrotation
			JOINT Spine2
			{
				OFFSET -0.372300 16.307602 -0.352600
				CHANNELS 3 Xrotation Yrotation Zrotation
				JOINT Neck
				{
					OFFSET -0.418800 17.814194 8.416900
					CHANNELS 3 Xrotation Yrotation Zrotation
					JOINT Head
					{
						OFFSET 0.000000 7.031097 3.806800
						CHANNELS 3 Xrotation Yrotation Zrotation
						JOINT HeadTop_End
						{
							OFFSET 0.000000 24.646606 12.978600
							CHANNELS 3 Xrotation Yrotation Zrotation
							End Site
							{
								OFFSET 0.000000 27.854965 0.000000
							}
						}
					}
				}
				JOINT LeftShoulder
				{
					OFFSET 16.952999 14.495407 -7.737500
					CHANNELS 3 Xrotation Yrotation Zrotation
					JOINT LeftArm
					{
						OFFSET 9.308998 -2.777710 0.208600
						CHANNELS 3 Xrotation Yrotation Zrotation
						JOINT LeftForeArm
						{
							OFFSET 29.972298 0.000000 0.000000
							CHANNELS 3 Xrotation Yrotation Zrotation
							JOINT LeftHand
							{
								OFFSET 26.026505 0.000000 0.000000
								CHANNELS 3 Xrotation Yrotation Zrotation
								JOINT LeftHandThumb1
								{
									OFFSET 12.240501 -7.147949 9.207150
									CHANNELS 3 Xrotation Yrotation Zrotation
									JOINT LeftHandThumb2
									{
										OFFSET 4.138618 -2.389435 2.389433
										CHANNELS 3 Xrotation Yrotation Zrotation
										JOINT LeftHandThumb3
										{
											OFFSET 2.726913 -1.574387 1.574386
											CHANNELS 3 Xrotation Yrotation Zrotation
											JOINT LeftHandThumb4
											{
												OFFSET 3.941010 -2.275345 2.275342
												CHANNELS 3 Xrotation Yrotation Zrotation
												End Site
												{
													OFFSET -0.005798 5.087799 0.009903
												}
											}
										}
									}
								}
								JOINT LeftHandIndex1
								{
									OFFSET 24.424698 -1.985611 5.953459
									CHANNELS 3 Xrotation Yrotation Zrotation
									JOINT LeftHandIndex2
									{
										OFFSET 6.426697 0.000000 0.000000
										CHANNELS 3 Xrotation Yrotation Zrotation
										JOINT LeftHandIndex3
										{
											OFFSET 5.337898 0.000000 0.000000
											CHANNELS 3 Xrotation Yrotation Zrotation
											JOINT LeftHandIndex4
											{
												OFFSET 4.409401 0.000000 0.000000
												CHANNELS 3 Xrotation Yrotation Zrotation
												End Site
												{
													OFFSET 0.000000 4.409363 0.014373
												}
											}
										}
									}
								}
								JOINT LeftHandMiddle1
								{
									OFFSET 23.810104 0.000000 0.000000
									CHANNELS 3 Xrotation Yrotation Zrotation
									JOINT LeftHandMiddle2
									{
										OFFSET 7.176498 0.000000 0.000000
										CHANNELS 3 Xrotation Yrotation Zrotation
										JOINT LeftHandMiddle3
										{
											OFFSET 6.774902 0.000000 0.000000
											CHANNELS 3 Xrotation Yrotation Zrotation
											JOINT LeftHandMiddle4
											{
												OFFSET 5.403328 0.000000 0.000000
												CHANNELS 3 Xrotation Yrotation Zrotation
												End Site
												{
													OFFSET -0.027702 5.403244 0.017414
												}
											}
										}
									}
								}
								JOINT LeftHandRing1
								{
									OFFSET 22.908401 -0.839279 -6.020567
									CHANNELS 3 Xrotation Yrotation Zrotation
									JOINT LeftHandRing2
									{
										OFFSET 6.337502 0.000000 0.000000
										CHANNELS 3 Xrotation Yrotation Zrotation
										JOINT LeftHandRing3
										{
											OFFSET 5.779297 0.000000 0.000000
											CHANNELS 3 Xrotation Yrotation Zrotation
											JOINT LeftHandRing4
											{
												OFFSET 4.965698 0.000000 0.000000
												CHANNELS 3 Xrotation Yrotation Zrotation
												End Site
												{
													OFFSET 0.000000 4.965668 0.016186
												}
											}
										}
									}
								}
								JOINT LeftHandPinky1
								{
									OFFSET 20.037003 -1.530319 -10.950146
									CHANNELS 3 Xrotation Yrotation Zrotation
									JOINT LeftHandPinky2
									{
										OFFSET 5.254700 0.000000 0.000000
										CHANNELS 3 Xrotation Yrotation Zrotation
										JOINT LeftHandPinky3
										{
											OFFSET 4.810204 0.000000 0.000000
											CHANNELS 3 Xrotation Yrotation Zrotation
											JOINT LeftHandPinky4
											{
												OFFSET 3.647202 0.000000 0.000000
												CHANNELS 3 Xrotation Yrotation Zrotation
												End Site
												{
													OFFSET 0.000000 3.647186 0.011889
												}
											}
										}
									}
								}
							}
						}
					}
				}
				JOINT RightShoulder
				{
					OFFSET -15.141001 14.495407 -7.737500
					CHANNELS 3 Xrotation Yrotation Zrotation
					JOINT RightArm
					{
						OFFSET -9.308998 -2.777710 0.208500
						CHANNELS 3 Xrotation Yrotation Zrotation
						JOINT RightForeArm
						{
							OFFSET -29.972300 0.000000 0.000000
							CHANNELS 3 Xrotation Yrotation Zrotation
							JOINT RightHand
							{
								OFFSET -26.026505 0.000000 0.000000
								CHANNELS 3 Xrotation Yrotation Zrotation
								JOINT RightHandThumb1
								{
									OFFSET -12.240601 -7.148026 9.207092
									CHANNELS 3 Xrotation Yrotation Zrotation
									JOINT RightHandThumb2
									{
										OFFSET -4.138618 -2.389435 2.389433
										CHANNELS 3 Xrotation Yrotation Zrotation
										JOINT RightHandThumb3
										{
											OFFSET -2.726974 -1.574417 1.574421
											CHANNELS 3 Xrotation Yrotation Zrotation
											JOINT RightHandThumb4
											{
												OFFSET -3.941010 -2.275345 2.275343
												CHANNELS 3 Xrotation Yrotation Zrotation
												End Site
												{
													OFFSET 0.005814 5.087799 0.009927
												}
											}
										}
									}
								}
								JOINT RightHandIndex1
								{
									OFFSET -24.424698 -1.985657 5.953444
									CHANNELS 3 Xrotation Yrotation Zrotation
									JOINT RightHandIndex2
									{
										OFFSET -6.426697 0.000000 0.000000
										CHANNELS 3 Xrotation Yrotation Zrotation
										JOINT RightHandIndex3
										{
											OFFSET -5.337898 0.000000 0.000000
											CHANNELS 3 Xrotation Yrotation Zrotation
											JOINT RightHandIndex4
											{
												OFFSET -4.409401 0.000000 0.000000
												CHANNELS 3 Xrotation Yrotation Zrotation
												End Site
												{
													OFFSET 0.000000 4.409363 0.014408
												}
											}
										}
									}
								}
								JOINT RightHandMiddle1
								{
									OFFSET -23.810097 0.000000 0.000000
									CHANNELS 3 Xrotation Yrotation Zrotation
									JOINT RightHandMiddle2
									{
										OFFSET -7.176498 0.000000 0.000000
										CHANNELS 3 Xrotation Yrotation Zrotation
										JOINT RightHandMiddle3
										{
											OFFSET -6.774902 0.000000 0.000000
											CHANNELS 3 Xrotation Yrotation Zrotation
											JOINT RightHandMiddle4
											{
												OFFSET -5.403328 0.000000 0.000000
												CHANNELS 3 Xrotation Yrotation Zrotation
												End Site
												{
													OFFSET 0.027702 5.403244 0.017457
												}
											}
										}
									}
								}
								JOINT RightHandRing1
								{
									OFFSET -22.908302 -0.839325 -6.020576
									CHANNELS 3 Xrotation Yrotation Zrotation
									JOINT RightHandRing2
									{
										OFFSET -6.337502 0.000000 0.000000
										CHANNELS 3 Xrotation Yrotation Zrotation
										JOINT RightHandRing3
										{
											OFFSET -5.779297 0.000000 0.000000
											CHANNELS 3 Xrotation Yrotation Zrotation
											JOINT RightHandRing4
											{
												OFFSET -4.965698 0.000000 0.000000
												CHANNELS 3 Xrotation Yrotation Zrotation
												End Site
												{
													OFFSET 0.000000 4.965668 0.016226
												}
											}
										}
									}
								}
								JOINT RightHandPinky1
								{
									OFFSET -20.037003 -1.530334 -10.950259
									CHANNELS 3 Xrotation Yrotation Zrotation
									JOINT RightHandPinky2
									{
										OFFSET -5.254700 0.000000 0.000000
										CHANNELS 3 Xrotation Yrotation Zrotation
										JOINT RightHandPinky3
										{
											OFFSET -4.810204 0.000000 0.000000
											CHANNELS 3 Xrotation Yrotation Zrotation
											JOINT RightHandPinky4
											{
												OFFSET -3.647202 0.000000 0.000000
												CHANNELS 3 Xrotation Yrotation Zrotation
												End Site
												{
													OFFSET 0.000000 3.647186 0.011917
												}
											}
										}
									}
								}
							}
						}
					}
				}
			}
		}
	}
	JOINT LeftUpLeg
	{
		OFFSET 15.427100 -6.655098 0.678600
		CHANNELS 3 Xrotation Yrotation Zrotation
		JOINT LeftLeg
		{
			OFFSET 4.081073 -39.591068 13.024000
			CHANNELS 3 Xrotation Yrotation Zrotation
			JOINT LeftFoot
			{
				OFFSET -4.081074 -37.707932 -15.979700
				CHANNELS 3 Xrotation Yrotation Zrotation
				JOINT LeftToeBase
				{
					OFFSET 5.346399 -15.068900 20.645000
					CHANNELS 3 Xrotation Yrotation Zrotation
					JOINT LeftToe_End
					{
						OFFSET 2.754700 0.931300 11.300900
						CHANNELS 3 Xrotation Yrotation Zrotation
						End Site
						{
							OFFSET 0.000000 11.669021 0.000000
						}
					}
				}
			}
		}
	}
	JOINT RightUpLeg
	{
		OFFSET -15.569500 -6.655098 0.678600
		CHANNELS 3 Xrotation Yrotation Zrotation
		JOINT RightLeg
		{
			OFFSET -4.081825 -39.591045 13.023800
			CHANNELS 3 Xrotation Yrotation Zrotation
			JOINT RightFoot
			{
				OFFSET 4.081824 -37.707954 -15.979600
				CHANNELS 3 Xrotation Yrotation Zrotation
				JOINT RightToeBase
				{
					OFFSET -5.346400 -15.068900 20.645000
					CHANNELS 3 Xrotation Yrotation Zrotation
					JOINT RightToe_End
					{
						OFFSET -2.754700 0.931300 11.300900
						CHANNELS 3 Xrotation Yrotation Zrotation
						End Site
						{
							OFFSET 0.000000 11.669021 0.000000
						}
					}
				}
			}
		}
	}
}
MOTION
Frames: 4
Frame Time: 0.033333
0.343859 94.364517 -0.226821 1.827651 -4.810794 0.061134 -6.186221 3.129937 -0.143775 5.024543 0.527995 1.026685 5.018003 0.514341 1.064775 1.940335 0.400673 -2.870698 13.020484 -2.502999 1.911231 0.000002 0.000000 -0.000000 0.166504 8.068927 -5.477428 10.501436 -37.553569 -61.207511 0.000005 -30.421601 0.000004 -21.709268 5.173241 10.484240 0.803561 18.088117 -0.129328 -9.334599 16.377853 4.346746 1.860300 21.895864 4.357769 -0.000001 0.000003 -0.000001 -0.865286 0.740050 -33.404727 0.862784 3.342237 -28.941537 0.791101 3.209408 -27.687263 -0.000001 0.000000 0.000000 4.094597 6.971806 -44.477673 0.635866 2.894802 -24.772428 0.394237 2.300620 -19.445144 0.000000 -0.000000 0.000003 5.180592 7.327231 -52.969903 1.093186 3.727890 -32.677172 0.813216 3.251156 -28.079869 0.000001 -0.000001 0.000000 8.729542 9.981890 -52.914988 2.259165 1.015151 -47.874264 2.202809 5.051767 -47.097016 -0.000001 0.000000 -0.000003 -0.142921 -4.416644 -0.950931 -4.181663 26.558371 77.028305 0.000001 10.450589 0.000001 -11.034602 -1.313983 -2.488357 -6.119852 -17.220731 -3.614688 6.686155 -16.663414 -4.442694 -0.492368 -4.713195 -5.029352 0.000001 0.000002 0.000003 -0.562663 -1.596021 37.238236 0.594752 -2.818476 23.826820 0.435924 -2.427588 20.357478 -0.000000 0.000001 -0.000001 2.028823 -4.946671 40.288287 1.423617 -4.220404 37.266414 0.028651 -4.694388 33.994340 0.000000 -0.000001 0.000001 3.031307 -5.816588 48.385733 1.478013 -4.290761 37.999416 -1.654832 -5.796265 33.724421 -0.000002 -0.000001 0.000002 4.991147 -6.965476 58.026589 1.773662 -4.643324 41.793975 1.689712 -4.547964 40.746303 -0.000001 0.000000 -0.000001 -9.613554 14.635712 14.549408 17.072027 7.461296 -2.543028 -7.658414 -0.256081 -10.958349 -0.094770 0.000002 -0.000000 -0.000000 0.000000 0.000000 -14.058334 -1.866750 -4.839778 22.283480 -7.405421 -3.575492 -6.995157 0.962441 9.170448 -4.083309 -0.000004 0.000001 -0.000000 0.000000 -0.000000 
0.498298 94.293350 -0.256831 1.743810 -4.654425 0.047330 -6.282773 2.964875 -0.066082 5.151817 0.504089 0.969272 5.145956 0.490150 1.005768 1.773478 0.392875 -2.831586 12.437461 -2.513307 1.966901 0.000001 0.000000 0.000000 0.166705 7.902340 -5.438785 10.696443 -37.622495 -61.056079 0.000009 -30.540303 -0.000002 -21.552974 5.404255 10.298149 0.636083 17.655759 -0.182674 -9.169432 17.025305 4.646439 1.926991 22.062175 4.375760 -0.000001 0.000001 0.000000 -0.833992 0.801272 -33.518914 0.868684 3.352895 -29.042876 0.801475 3.229091 -27.872110 0.000000 -0.000001 -0.000000 4.071964 6.924894 -44.811901 0.633210 2.889049 -24.719754 0.390067 2.288801 -19.341117 -0.000000 -0.000002 0.000002 5.171497 7.323767 -52.919302 1.093937 3.729048 -32.688654 0.815062 3.254608 -28.112435 0.000000 -0.000002 0.000000 8.770465 10.028804 -52.814882 2.260855 1.016679 -47.893136 2.193359 5.043004 -46.989468 -0.000001 0.000000 0.000001 -0.090523 -4.304147 -0.420278 -4.172254 26.493605 76.510481 0.000006 10.512538 -0.000017 -11.170820 -1.296023 -2.401965 -6.145480 -17.257988 -3.663537 6.686147 -16.663394 -4.442701 -0.476174 -4.740305 -5.026944 0.000001 0.000000 0.000002 -0.303275 -1.929899 37.102810 0.594814 -2.818607 23.828092 0.440090 -2.438774 20.455546 0.000000 0.000001 0.000001 2.236882 -5.231568 38.790420 1.580932 -4.418959 39.354857 0.044388 -4.733470 34.275610 -0.000000 -0.000000 -0.000001 3.263582 -6.028945 48.127494 1.478601 -4.291520 38.007288 -1.727850 -5.860997 33.790274 0.000001 -0.000002 -0.000001 4.976780 -7.049678 55.928878 1.981137 -4.864693 44.296977 1.715724 -4.577889 41.073216 -0.000001 0.000001 0.000002 -9.585020 14.105375 14.501110 17.297587 7.458416 -2.678699 -7.752464 0.016560 -10.847930 -0.099554 0.000007 -0.000001 -0.000000 -0.000002 0.000000 -14.060147 -2.251007 -4.961586 22.452406 -7.241663 -3.565453 -7.048681 0.728652 9.187874 -4.024090 -0.000003 -0.000002 0.000000 0.000000 0.000000 
0.649157 94.212570 -0.295399 1.672517 -4.601638 0.066164 -6.347078 2.892436 -0.065474 5.242165 0.493778 0.953826 5.236541 0.479922 0.989776 1.606467 0.391994 -2.826842 11.825124 -2.529457 2.039991 0.000001 0.000000 -0.000000 0.165447 7.811048 -5.399616 10.727090 -37.626231 -61.062854 -0.000003 -30.572360 0.000008 -21.371437 5.646958 10.097835 0.443039 17.161363 -0.242574 -8.992599 17.742851 4.984933 1.999476 22.240597 4.395046 -0.000002 -0.000002 -0.000001 -0.804058 0.859325 -33.627463 0.872341 3.359455 -29.105260 0.813010 3.250755 -28.076111 0.000000 -0.000000 0.000001 4.040877 6.868327 -45.182268 0.631616 2.885599 -24.688252 0.387218 2.280634 -19.269328 -0.000000 -0.000002 -0.000001 5.158201 7.317078 -52.869537 1.094376 3.729746 -32.695446 0.817044 3.258304 -28.147223 0.000001 0.000000 -0.000000 8.813777 10.080333 -52.699383 2.262152 1.017840 -47.907637 2.184371 5.034631 -46.887224 0.000000 0.000000 0.000002 -0.057254 -4.244823 -0.069036 -4.241233 26.378923 76.196518 0.000002 10.522814 -0.000001 -11.117612 -1.228293 -2.302638 -6.211587 -17.188502 -3.682601 6.686152 -16.663399 -4.442682 -0.463221 -4.761353 -5.025002 -0.000000 -0.000001 0.000002 -0.245403 -2.000818 37.023044 0.594841 -2.818675 23.828694 0.442577 -2.445422 20.513905 0.000000 0.000001 0.000001 2.358430 -5.421900 37.747553 1.673810 -4.529498 40.545191 0.054695 -4.756583 34.445651 -0.000001 -0.000002 -0.000000 3.406515 -6.163936 47.898590 1.479054 -4.292082 38.013285 -1.772524 -5.900103 33.827608 0.000001 -0.000001 0.000002 4.910921 -7.054282 54.919055 2.071968 -4.955749 45.358125 1.727905 -4.591791 41.225625 0.000002 0.000001 -0.000001 -9.593970 13.788415 14.439438 17.516985 7.380536 -2.754195 -7.845302 0.262354 -10.763380 -0.114415 -0.000003 0.000000 0.000000 0.000000 0.000000 -14.134669 -2.570090 -5.118080 22.638713 -6.908279 -3.495897 -7.103505 0.568923 9.124899 -3.977875 -0.000002 0.000004 0.000000 0.000000 -0.000000 
0.796489 94.200058 -0.349999 1.661157 -4.671781 0.094744 -6.411307 2.918441 -0.131175 5.277058 0.498962 0.997087 5.271035 0.485385 1.033678 1.436866 0.400327 -2.863653 11.259587 -2.551139 2.107319 0.000001 0.000000 -0.000000 0.167343 7.791669 -5.403502 10.641140 -37.542910 -61.201835 -0.000009 -30.547328 -0.000004 -21.174736 5.888549 9.895662 0.241103 16.647053 -0.304359 -8.819645 18.477928 5.336471 2.072777 22.419801 4.414454 -0.000002 0.000002 0.000000 -0.776088 0.913145 -33.728379 0.874448 3.363215 -29.141002 0.824849 3.272836 -28.284309 0.000002 0.000002 0.000002 4.005272 6.808310 -45.561132 0.630759 2.883720 -24.671058 0.385258 2.275059 -19.220306 0.000000 0.000001 0.000001 5.142774 7.308606 -52.822289 1.094611 3.730102 -32.699073 0.819023 3.261995 -28.182090 0.000001 -0.000001 -0.000000 8.856765 10.132826 -52.578899 2.263151 1.018748 -47.918838 2.176036 5.026846 -46.792140 -0.000001 0.000000 0.000001 -0.048595 -4.248223 0.028322 -4.374363 26.222775 76.146193 -0.000001 10.526001 0.000016 -10.823735 -1.058387 -2.156889 -6.296421 -17.048412 -3.675893 6.686165 -16.663435 -4.442676 -0.457931 -4.768435 -5.024290 0.000002 0.000001 0.000001 -0.370483 -1.829050 36.973153 0.594844 -2.818679 23.828705 0.443256 -2.447232 20.529793 -0.000000 0.000000 -0.000002 2.416974 -5.516512 37.312302 1.690613 -4.549014 40.757627 0.048843 -4.769643 34.495867 0.000000 -0.000001 0.000001 3.465079 -6.224317 47.685341 1.479327 -4.292441 38.016976 -1.788678 -5.914645 33.842792 0.000000 0.000001 -0.000000 4.801873 -6.976399 54.961528 2.038749 -4.922838 44.972206 1.725981 -4.589592 41.201583 0.000000 0.000003 -0.000001 -9.692881 13.995322 14.361637 17.528948 7.089935 -2.660069 -7.842602 0.240761 -10.697240 -0.137545 0.000000 -0.000003 -0.000000 0.000000 -0.000000 -14.190252 -2.636123 -5.263299 22.580496 -6.555647 -3.392688 -7.076349 0.599779 9.045223 -3.657276 0.000004 -0.000001 -0.000000 -0.000001 -0.000000 
